:FULLY-SPECIFIED
:FORCE-ALL-JOINTS-BE-3DOF
:DEGREES
917
root 2.87685 16.0487 32.2685 2.38902 14.5636 361.975
lfemur -17.4985 19.3877 -10.6765
ltibia 36.7486 0 0
lfoot -20.6898 -2.95562 0
ltoes -3.20865 0 0
rfemur -25.6762 -13.443 -3.84153
rtibia 70.6962 0 0
rfoot -2.40676 -16.4237 0
rtoes 16.6513 0 0
lowerback 1.25983 -1.72397 -2.2669
upperback -0.464128 -2.3982 -3.77988
thorax -1.17642 -1.19546 -2.55248
lowerneck -6.99407 -4.76577 -0.509467
upperneck 3.37012 -6.57309 4.6206
head 2.55122 -3.14336 1.2563
lclavicle 4.03805e-015 2.6992e-014 0
lhumerus -54.9483 -40.9136 112.78
lradius 59.7282 0 0
lwrist 16.0584 0 0
lhand 35.1703 20.1097 0
lfingers 7.12502 0 0
lthumb 58.2937 35.6715 0
rclavicle 4.03805e-015 2.6992e-014 0
rhumerus -29.9222 -1.4382 -69.9394
rradius 92.7906 0 0
rwrist -11.3689 0 0
rhand -0.912985 -17.3064 0
rfingers 7.12502 0 0
rthumb 24.5803 -763.895 0
918
root 2.80875 16.0199 32.2976 2.61902 13.8581 362.111
lfemur -16.6117 18.6561 -10.1181
ltibia 35.4255 0 0
lfoot -21.0929 -3.38341 0
ltoes -4.37616 0 0
rfemur -25.7956 -13.4927 -4.05241
rtibia 69.7873 0 0
rfoot -3.09339 -15.6946 0
rtoes 14.2592 0 0
lowerback 1.07184 -1.67124 -2.16315
upperback -0.525823 -2.3232 -3.92304
thorax -1.13852 -1.15988 -2.766
lowerneck -6.98853 -4.56829 -0.355849
upperneck 3.28882 -6.31683 4.57202
head 2.51237 -3.01693 1.22598
lclavicle 3.2414e-015 2.84572e-014 0
lhumerus -55.1695 -41.0788 112.836
lradius 59.573 0 0
lwrist 16.4248 0 0
lhand 35.4812 20.3289 0
lfingers 7.12502 0 0
lthumb 58.5617 35.6264 0
rclavicle 3.2414e-015 2.84572e-014 0
rhumerus -28.5178 -2.84767 -67.4029
rradius 90.3397 0 0
rwrist -11.5279 0 0
rhand -2.47828 -18.649 0
rfingers 7.12502 0 0
rthumb 23.0762 -765.352 0
919
root 2.73969 15.9908 32.3258 2.84527 13.1386 362.249
lfemur -15.7028 17.9021 -9.55144
ltibia 34.072 0 0
lfoot -21.497 -3.83181 0
ltoes -5.55643 0 0
rfemur -25.9343 -13.5375 -4.26338
rtibia 68.854 0 0
rfoot -3.79003 -14.9415 0
rtoes 11.8059 0 0
lowerback 0.885594 -1.6172 -2.05811
upperback -0.586464 -2.24658 -4.06783
thorax -1.10048 -1.12352 -2.98195
lowerneck -6.98256 -4.36572 -0.197202
upperneck 3.20802 -6.05412 4.52167
head 2.47327 -2.88727 1.19453
lclavicle 2.43695e-015 2.99228e-014 0
lhumerus -55.3864 -41.2381 112.877
lradius 59.4121 0 0
lwrist 16.8024 0 0
lhand 35.7846 20.5452 0
lfingers 7.12502 0 0
lthumb 58.8224 35.5787 0
rclavicle 2.43695e-015 2.99228e-014 0
rhumerus -27.0926 -4.28563 -64.8025
rradius 87.8153 0 0
rwrist -11.684 0 0
rhand -4.0827 -20.0261 0
rfingers 7.12502 0 0
rthumb 21.5347 -766.848 0
920
root 2.66988 15.9613 32.3532 3.0676 12.4075 362.387
lfemur -14.7749 17.1287 -8.97808
ltibia 32.6925 0 0
lfoot -21.9013 -4.29832 0
ltoes -6.74657 0 0
rfemur -26.0907 -13.5778 -4.47399
rtibia 67.8998 0 0
rfoot -4.49487 -14.1674 0
rtoes 9.30032 0 0
lowerback 0.701305 -1.56206 -1.95206
upperback -0.645994 -2.1686 -4.21384
thorax -1.06236 -1.0865 -3.19974
lowerneck -6.97621 -4.15877 -0.0340963
upperneck 3.1278 -5.78588 4.46976
head 2.434 -2.75482 1.16206
lclavicle 1.62716e-015 3.13833e-014 0
lhumerus -55.5989 -41.3918 112.906
lradius 59.2464 0 0
lwrist 17.1898 0 0
lhand 36.0805 20.7583 0
lfingers 7.12502 0 0
lthumb 59.0759 35.5288 0
rclavicle 1.62716e-015 3.13833e-014 0
rhumerus -25.6507 -5.74701 -62.1473
rradius 85.2273 0 0
rwrist -11.8369 0 0
rhand -5.72018 -21.4324 0
rfingers 7.12502 0 0
rthumb 19.9614 -768.376 0
921
root 2.59948 15.9316 32.3797 3.28587 11.6669 362.526
lfemur -13.8312 16.3392 -8.39952
ltibia 31.2916 0 0
lfoot -22.305 -4.78048 0
ltoes -7.94374 0 0
rfemur -26.263 -13.6139 -4.68378
rtibia 66.9284 0 0
rfoot -5.20609 -13.3754 0
rtoes 6.75147 0 0
lowerback 0.519195 -1.506 -1.84523
upperback -0.704357 -2.0895 -4.36065
thorax -1.02423 -1.04895 -3.41877
lowerneck -6.96951 -3.94813 0.132895
upperneck 3.04824 -5.513 4.41652
head 2.39464 -2.62003 1.1287
lclavicle 8.14484e-016 3.28334e-014 0
lhumerus -55.807 -41.5402 112.922
lradius 59.0765 0 0
lwrist 17.5854 0 0
lhand 36.3688 20.9682 0
lfingers 7.12502 0 0
lthumb 59.3221 35.4771 0
rclavicle 8.14484e-016 3.28334e-014 0
rhumerus -24.1959 -7.22677 -59.4465
rradius 82.5857 0 0
rwrist -11.9866 0 0
rhand -7.38462 -22.8627 0
rfingers 7.12502 0 0
rthumb 18.3623 -769.932 0
922
root 2.52869 15.9017 32.4053 3.49993 10.919 362.666
lfemur -12.8747 15.5364 -7.81725
ltibia 29.8739 0 0
lfoot -22.7075 -5.2758 0
ltoes -9.14506 0 0
rfemur -26.4497 -13.6462 -4.89232
rtibia 65.9434 0 0
rfoot -5.92187 -12.5685 0
rtoes 4.16833 0 0
lowerback 0.339487 -1.44921 -1.7379
upperback -0.761494 -2.00956 -4.50784
thorax -0.986147 -1.01099 -3.63845
lowerneck -6.9625 -3.73452 0.3032
upperneck 2.96942 -5.23639 4.36217
head 2.35527 -2.48337 1.09459
lclavicle 1.37814e-018 3.42677e-014 0
lhumerus -56.0105 -41.6835 112.928
lradius 58.903 0 0
lwrist 17.9876 0 0
lhand 36.6494 21.1747 0
lfingers 7.12502 0 0
lthumb 59.5611 35.4241 0
rclavicle 1.37814e-018 3.42677e-014 0
rhumerus -22.7324 -8.71986 -56.7093
rradius 79.9002 0 0
rwrist -12.1328 0 0
rhand -9.06996 -24.3118 0
rfingers 7.12502 0 0
rthumb 16.7432 -771.509 0
923
root 2.45769 15.8717 32.43 3.70962 10.1661 362.805
lfemur -11.9086 14.7235 -7.23279
ltibia 28.4437 0 0
lfoot -23.1079 -5.78181 0
ltoes -10.3477 0 0
rfemur -26.649 -13.675 -5.09917
rtibia 64.9483 0 0
rfoot -6.64039 -11.7499 0
rtoes 1.55987 0 0
lowerback 0.162401 -1.3919 -1.63032
upperback -0.817351 -1.92901 -4.65499
thorax -0.948167 -0.97273 -3.85819
lowerneck -6.95522 -3.51864 0.476247
upperneck 2.8914 -4.95695 4.30693
head 2.31596 -2.34527 1.05985
lclavicle -8.09697e-016 3.56807e-014 0
lhumerus -56.2094 -41.8218 112.924
lradius 58.7267 0 0
lwrist 18.3949 0 0
lhand 36.9223 21.3777 0
lfingers 7.12502 0 0
lthumb 59.7929 35.3702 0
rclavicle -8.09697e-016 3.56807e-014 0
rhumerus -21.2642 -10.2212 -53.9448
rradius 77.181 0 0
rwrist -12.2754 0 0
rhand -10.7701 -25.7744 0
rfingers 7.12502 0 0
rthumb 15.1099 -773.101 0
